<svg width="30" height="37" viewBox="0 0 30 37" fill="none" xmlns="http://www.w3.org/2000/svg">
<path d="M29.5495 10.3888L19.0497 0.427419C18.9177 0.288374 18.7554 0.178187 18.5741 0.104476C18.3928 0.0307645 18.1968 -0.00471111 17.9997 0.00050149H2.99995C2.20504 0.0027538 1.44337 0.303335 0.881287 0.836597C0.319201 1.36986 0.00237405 2.09247 0 2.84662V34.1539C0.00237405 34.908 0.319201 35.6306 0.881287 36.1639C1.44337 36.6972 2.20504 36.9977 2.99995 37H26.9995C27.7944 36.9977 28.5561 36.6972 29.1182 36.1639C29.6803 35.6306 29.9971 34.908 29.9995 34.1539V11.385C30.005 11.1979 29.9676 11.012 29.8899 10.84C29.8122 10.668 29.696 10.514 29.5495 10.3888ZM17.9997 3.41584L26.3995 11.385H17.9997V3.41584ZM26.9995 34.1539H2.99995V2.84662H14.9997V11.385C15.0021 12.1391 15.3189 12.8617 15.881 13.395C16.4431 13.9282 17.2048 14.2288 17.9997 14.2311H26.9995V34.1539Z" fill="#635FFA"/>
</svg>
