<svg width="41" height="33" viewBox="0 0 41 33" fill="none" xmlns="http://www.w3.org/2000/svg">
<path d="M0.338234 32.0739C0.719516 32.6514 1.36114 33 2.0499 33H32.7985C33.6184 33 34.3605 32.5091 34.6823 31.7501L40.8321 17.3126C40.9668 16.999 41.0218 16.6565 40.9922 16.3162C40.9625 15.9758 40.8491 15.6482 40.6622 15.3629C40.4753 15.0777 40.2208 14.8437 39.9215 14.6821C39.6223 14.5206 39.2878 14.4365 38.9482 14.4375H36.8983V8.25C36.8983 5.97506 35.0595 4.125 32.7985 4.125H19.1564L13.9168 0H4.09981C1.83876 0 0 1.85006 0 4.125V30.9375H0.0143493C0.00978026 31.34 0.122368 31.735 0.338234 32.0739ZM32.7985 8.25V14.4375H8.19962C7.37966 14.4375 6.63759 14.9284 6.31576 15.6874L4.09981 20.8911V8.25H32.7985Z" fill="#635FFA"/>
</svg>
