<svg width="103" height="113" viewBox="0 0 103 113" fill="none" xmlns="http://www.w3.org/2000/svg">
<path d="M0 8C0 3.58173 3.58172 0 8 0H95C99.4183 0 103 3.58172 103 8V105C103 109.418 99.4183 113 95 113H8C3.58172 113 0 109.418 0 105V8Z" fill="#635FFA"/>
<path d="M34.9375 40C33.8932 40 32.8917 40.4346 32.1533 41.2082C31.4148 41.9818 31 43.031 31 44.125V68.875C31 69.969 31.4148 71.0182 32.1533 71.7918C32.8917 72.5654 33.8932 73 34.9375 73H69.0625C70.1068 73 71.1083 72.5654 71.8467 71.7918C72.5852 71.0182 73 69.969 73 68.875V44.125C73 43.031 72.5852 41.9818 71.8467 41.2082C71.1083 40.4346 70.1068 40 69.0625 40H34.9375ZM69.0625 42.75C69.4106 42.75 69.7444 42.8949 69.9906 43.1527C70.2367 43.4106 70.375 43.7603 70.375 44.125V60.625L60.4656 55.2707C60.2195 55.1416 59.9407 55.0968 59.6689 55.1426C59.3971 55.1885 59.146 55.3228 58.951 55.5265L49.2123 65.729L42.2297 60.856C41.9776 60.6802 41.6753 60.6011 41.3738 60.6322C41.0724 60.6632 40.7905 60.8026 40.576 61.0265L33.6302 67.5V68.985C33.6271 68.9484 33.6254 68.9117 33.625 68.875V44.125C33.625 43.7603 33.7633 43.4106 34.0094 43.1527C34.2556 42.8949 34.5894 42.75 34.9375 42.75H69.0625Z" fill="white"/>
</svg>
