<svg width="23" height="21" viewBox="0 0 23 21" fill="none" xmlns="http://www.w3.org/2000/svg">
<path d="M0.310272 8.05137L1.21358 7.12359C1.3946 6.93767 1.63528 6.83529 1.89126 6.83529C2.14724 6.83529 2.38804 6.93767 2.56894 7.12359L2.79473 7.35558L3.5982 6.53034C3.41467 5.56812 3.70411 4.5657 4.37572 3.8754L6.18274 2.01945C7.41454 0.716543 9.1357 0 10.8928 0C12.6858 0 14.3711 0.716543 15.637 2.01838L15.9485 2.33994L12.1148 4.31074V4.87717C12.1148 5.65441 11.8078 6.41525 11.2726 6.96527L9.30942 8.98078C8.7727 9.53244 8.05588 9.83637 7.29115 9.83637C7.10104 9.83636 6.91139 9.81731 6.72488 9.77948L5.92141 10.6047L6.1472 10.8366C6.52086 11.2204 6.52086 11.8448 6.14728 12.2287L5.24397 13.1565C5.06287 13.3424 4.82226 13.4448 4.56629 13.4448C4.31031 13.4448 4.06951 13.3424 3.88861 13.1565L0.273373 9.44454C-0.0970573 9.05625 -0.0970554 8.43281 0.310272 8.05137ZM12.1787 7.89141C12.3323 7.73366 12.4661 7.55865 12.5928 7.37912L22.157 15.9596C23.28 17.1129 23.2815 18.9833 22.1585 20.135C21.5943 20.7129 20.858 21 20.1575 21C19.4571 21 18.6863 20.7116 18.1245 20.135L9.77425 10.3158C9.93962 10.1903 10.1011 10.0579 10.2491 9.90585L12.1787 7.89141Z" fill="#635FFA"/>
</svg>
