<svg width="76" height="138" viewBox="0 0 76 138" fill="none" xmlns="http://www.w3.org/2000/svg">
<path opacity="0.5" fill-rule="evenodd" clip-rule="evenodd" d="M10.4421 134.703C14.0128 136.822 18.4075 138 23.6504 138C28.8932 138 33.2879 136.822 36.8586 134.703C40.4216 132.588 42.788 129.76 44.3249 127.023C45.8388 124.328 46.5644 121.7 46.9214 119.793C47.1026 118.825 47.1967 118.001 47.2459 117.388C47.2706 117.08 47.2843 116.822 47.2918 116.621C47.2955 116.521 47.2978 116.435 47.2991 116.364L47.3004 116.268L47.3006 116.229L47.3007 116.212L47.3007 116.204C47.3007 116.204 47.3007 116.196 40.3916 116.196L47.3007 116.196L47.3007 46.644C47.3007 42.8332 44.2074 39.744 40.3916 39.744C36.5758 39.744 33.4825 42.8332 33.4825 46.644L33.4825 116.123C33.4812 116.152 33.4782 116.207 33.4719 116.285C33.4557 116.487 33.419 116.827 33.3386 117.257C33.1725 118.144 32.8517 119.242 32.273 120.273C31.7172 121.262 30.9446 122.16 29.7992 122.84C28.6614 123.515 26.7782 124.2 23.6504 124.2C20.5225 124.2 18.6393 123.515 17.5015 122.84C16.3561 122.16 15.5835 121.262 15.0277 120.273C14.449 119.242 14.1282 118.144 13.9621 117.257C13.8817 116.827 13.845 116.487 13.8288 116.285C13.8225 116.207 13.8195 116.152 13.8182 116.123L13.8182 36.7375L13.8216 36.6127C13.8262 36.4791 13.8367 36.25 13.8599 35.9392C13.9063 35.3151 14.003 34.3764 14.2021 33.2307C14.6059 30.908 15.4009 27.9103 16.9232 24.9913C18.4285 22.1051 20.593 19.387 23.7499 17.3692C26.8771 15.3704 31.3799 13.8 38 13.8C44.6201 13.8 49.1228 15.3704 52.2501 17.3692C55.407 19.387 57.5715 22.1051 59.0768 24.9913C60.5991 27.9103 61.3941 30.908 61.7979 33.2307C61.997 34.3764 62.0936 35.3151 62.1401 35.9392C62.1633 36.25 62.1738 36.4791 62.1784 36.6127L62.1818 36.7374L62.1818 102.12C62.1818 105.931 65.2751 109.02 69.0909 109.02C72.9067 109.02 76 105.931 76 102.12L76 36.708L69.0909 36.708C76 36.708 76 36.7006 76 36.7006L76 36.6925L75.9999 36.6743L75.9996 36.6293L75.9981 36.5066C75.9965 36.4103 75.9935 36.2854 75.9882 36.1338C75.9777 35.8307 75.9578 35.4194 75.9202 34.9152C75.8453 33.9091 75.699 32.5191 75.4124 30.8702C74.8446 27.6039 73.6964 23.1497 71.3323 18.6166C68.9512 14.0509 65.2861 9.31701 59.6988 5.74581C54.0817 2.1556 46.9253 -4.10235e-06 38 -3.32207e-06C29.0746 -2.54179e-06 21.9183 2.15561 16.3012 5.74582C10.7138 9.31702 7.0488 14.0509 4.66768 18.6166C2.30362 23.1497 1.15543 27.6039 0.587613 30.8702C0.300976 32.5191 0.154717 33.9091 0.079761 34.9152C0.0421941 35.4194 0.0222801 35.8307 0.0117426 36.1338C0.00647059 36.2854 0.00353395 36.4103 0.00191471 36.5066L0.00034571 36.6293L6.40329e-05 36.6743L7.20416e-06 36.6925L-5.14955e-06 36.7006C-5.14955e-06 36.7006 -8.85523e-06 36.708 6.90908 36.708L-8.85523e-06 36.708L-1.90617e-06 116.196L6.90909 116.196C-1.90617e-06 116.196 2.21265e-06 116.204 2.21265e-06 116.204L1.58032e-05 116.212L7.34587e-05 116.229L0.000335788 116.268L0.0016396 116.364C0.00292776 116.435 0.00515444 116.521 0.00891061 116.621C0.0164147 116.822 0.0300754 117.08 0.0547699 117.388C0.103963 118.001 0.198064 118.825 0.379262 119.793C0.736337 121.7 1.46187 124.328 2.97583 127.023C4.51268 129.76 6.87908 132.588 10.4421 134.703Z" fill="#BDBDBD"/>
</svg>
