<svg width="87" height="109" viewBox="0 0 87 109" fill="none" xmlns="http://www.w3.org/2000/svg">
<path opacity="0.5" d="M65.25 32.7H21.75V21.8H65.25V32.7ZM65.25 43.6H21.75V54.5H65.25V43.6ZM87 10.9V76.3L54.375 109H10.875C7.99077 109 5.22467 107.852 3.18521 105.807C1.14576 103.763 0 100.991 0 98.1V10.9C0 8.00914 1.14576 5.23668 3.18521 3.19254C5.22467 1.14839 7.99077 0 10.875 0H76.125C79.0092 0 81.7753 1.14839 83.8148 3.19254C85.8542 5.23668 87 8.00914 87 10.9ZM76.125 65.4V10.9H10.875V98.1H43.5V76.3C43.5 73.4091 44.6458 70.6367 46.6852 68.5925C48.7247 66.5484 51.4908 65.4 54.375 65.4H76.125Z" fill="#BDBDBD"/>
</svg>
