<svg width="18" height="16" viewBox="0 0 18 16" fill="none" xmlns="http://www.w3.org/2000/svg">
<path opacity="0.5" d="M9 0C8.66265 -5.02686e-09 8.32861 0.0664454 8.01694 0.195543C7.70527 0.32464 7.42208 0.51386 7.18354 0.752401C6.945 0.990941 6.75578 1.27413 6.62669 1.5858C6.49759 1.89747 6.43114 2.23151 6.43114 2.56886C6.43114 2.9062 6.49759 3.24025 6.62669 3.55192C6.75578 3.86358 6.945 4.14677 7.18354 4.38531C7.42208 4.62385 7.70527 4.81308 8.01694 4.94217C8.32861 5.07127 8.66265 5.13771 9 5.13771C9.6813 5.13771 10.3347 4.86707 10.8165 4.38531C11.2982 3.90356 11.5689 3.25016 11.5689 2.56886C11.5689 1.88755 11.2982 1.23415 10.8165 0.752401C10.3347 0.270647 9.6813 0 9 0ZM14.7857 1.28314C14.2742 1.28314 13.7837 1.48633 13.422 1.84801C13.0603 2.20969 12.8571 2.70023 12.8571 3.21171C12.8571 3.7232 13.0603 4.21374 13.422 4.57542C13.7837 4.9371 14.2742 5.14029 14.7857 5.14029C15.2972 5.14029 15.7877 4.9371 16.1494 4.57542C16.5111 4.21374 16.7143 3.7232 16.7143 3.21171C16.7143 2.70023 16.5111 2.20969 16.1494 1.84801C15.7877 1.48633 15.2972 1.28314 14.7857 1.28314ZM3.21429 1.28314C2.7028 1.28314 2.21226 1.48633 1.85058 1.84801C1.4889 2.20969 1.28571 2.70023 1.28571 3.21171C1.28571 3.7232 1.4889 4.21374 1.85058 4.57542C2.21226 4.9371 2.7028 5.14029 3.21429 5.14029C3.72578 5.14029 4.21631 4.9371 4.57799 4.57542C4.93967 4.21374 5.14286 3.7232 5.14286 3.21171C5.14286 2.70023 4.93967 2.20969 4.57799 1.84801C4.21631 1.48633 3.72578 1.28314 3.21429 1.28314ZM5.14286 7.70271C5.14523 7.36328 5.28174 7.03857 5.5226 6.79939C5.76346 6.56021 6.08913 6.42599 6.42857 6.426H11.5714C11.9124 6.426 12.2394 6.56146 12.4806 6.80258C12.7217 7.0437 12.8571 7.37072 12.8571 7.71172V11.5689C12.8571 11.9735 12.7937 12.3756 12.6694 12.7607C12.3847 13.6333 11.7983 14.3759 11.0154 14.855C10.2325 15.3341 9.3044 15.5185 8.39781 15.3749C7.49122 15.2314 6.6655 14.7693 6.06893 14.0717C5.47236 13.3741 5.14402 12.4867 5.14286 11.5689V7.70271ZM3.85714 7.71172C3.85714 7.24243 3.98186 6.804 4.20171 6.426H1.28571C0.944722 6.426 0.617695 6.56146 0.376577 6.80258C0.135459 7.0437 1.7796e-07 7.37072 1.7796e-07 7.71172V10.926C-0.000174919 11.4523 0.128862 11.9705 0.375779 12.4352C0.622697 12.8999 0.979941 13.2969 1.41614 13.5913C1.85234 13.8857 2.35415 14.0685 2.8775 14.1237C3.40085 14.1788 3.92974 14.1046 4.41771 13.9076C4.04766 13.1832 3.8555 12.381 3.85714 11.5676V7.71172ZM14.1429 7.71172V11.5689C14.1429 12.411 13.941 13.2056 13.5823 13.9076C14.0703 14.1046 14.5991 14.1788 15.1225 14.1237C15.6459 14.0685 16.1477 13.8857 16.5839 13.5913C17.0201 13.2969 17.3773 12.8999 17.6242 12.4352C17.8711 11.9705 18.0002 11.4523 18 10.926V7.71172C18 7.37072 17.8645 7.0437 17.6234 6.80258C17.3823 6.56146 17.0553 6.426 16.7143 6.426H13.7983C14.0169 6.804 14.1429 7.24243 14.1429 7.71172Z" fill="#635FFA"/>
</svg>
