<svg width="144" height="144" viewBox="0 0 144 144" fill="none" xmlns="http://www.w3.org/2000/svg">
<circle opacity="0.5" cx="72" cy="72" r="72" fill="#635FFA"/>
<path fill-rule="evenodd" clip-rule="evenodd" d="M77 49.5C77 47.0147 74.9853 45 72.5 45C70.0147 45 68 47.0147 68 49.5V66H48.5C46.0147 66 44 68.0147 44 70.5C44 72.9853 46.0147 75 48.5 75H68V94.5C68 96.9853 70.0147 99 72.5 99C74.9853 99 77 96.9853 77 94.5V75H96.5C98.9853 75 101 72.9853 101 70.5C101 68.0147 98.9853 66 96.5 66H77V49.5Z" fill="white"/>
</svg>
