<svg width="17" height="20" viewBox="0 0 17 20" fill="none" xmlns="http://www.w3.org/2000/svg">
<path d="M1.21429 16.9426H15.7857C16.4536 16.9426 17 17.489 17 18.1569C17 18.8247 16.4536 19.3712 15.7857 19.3712H1.21429C0.546429 19.3712 0 18.8247 0 18.1569C0 17.489 0.546429 16.9426 1.21429 16.9426ZM7.29786 11.964C6.84123 12.4147 6.22481 12.6664 5.58321 12.6642C4.94161 12.6619 4.32699 12.4058 3.87357 11.9519L1.21429 9.29259C0.546429 8.62473 0.558572 7.54402 1.25071 6.90045C1.90643 6.26902 2.95071 6.29331 3.58214 6.92473L5.58571 8.9283L13.3936 1.12045C14.0493 0.464734 15.1057 0.464734 15.7614 1.12045L15.81 1.16902C16.4657 1.82473 16.4657 2.8933 15.7979 3.54902L7.29786 11.964Z" fill="white"/>
</svg>
