<svg width="23" height="23" viewBox="0 0 23 23" fill="none" xmlns="http://www.w3.org/2000/svg">
<path d="M14.2 12C14.8084 12 15.3 12.6145 15.3 13.375V21.625C15.3 22.3855 14.8084 23 14.2 23H9.8C9.19156 23 8.7 22.3855 8.7 21.625V13.375C8.7 12.6145 9.19156 12 9.8 12H14.2ZM6.5 14.75C7.10844 14.75 7.6 15.3645 7.6 16.125V21.625C7.6 22.3855 7.10844 23 6.5 23H2.1C1.49259 23 1 22.3855 1 21.625V16.125C1 15.3645 1.49259 14.75 2.1 14.75H6.5ZM16.4 18.875C16.4 18.1145 16.8916 17.5 17.5 17.5H21.9C22.5084 17.5 23 18.1145 23 18.875V21.625C23 22.3855 22.5084 23 21.9 23H17.5C16.8916 23 16.4 22.3855 16.4 21.625V18.875Z" fill="#635FFA"/>
<path d="M13.2 11C13.8084 11 14.3 11.6145 14.3 12.375V20.625C14.3 21.3855 13.8084 22 13.2 22H8.8C8.19156 22 7.7 21.3855 7.7 20.625V12.375C7.7 11.6145 8.19156 11 8.8 11H13.2ZM5.5 13.75C6.10844 13.75 6.6 14.3645 6.6 15.125V20.625C6.6 21.3855 6.10844 22 5.5 22H1.1C0.492594 22 0 21.3855 0 20.625V15.125C0 14.3645 0.492594 13.75 1.1 13.75H5.5ZM15.4 17.875C15.4 17.1145 15.8916 16.5 16.5 16.5H20.9C21.5084 16.5 22 17.1145 22 17.875V20.625C22 21.3855 21.5084 22 20.9 22H16.5C15.8916 22 15.4 21.3855 15.4 20.625V17.875Z" fill="#AB70F1"/>
<path d="M15.0226 4.49808C15.3106 4.20503 15.1412 3.71089 14.7473 3.64902L12.5324 3.32503L11.5329 1.27207C11.3677 0.917063 10.8511 0.901638 10.6689 1.27207L9.66946 3.32503L7.4545 3.64902C7.06064 3.71089 6.89123 4.20503 7.17922 4.49808L8.78856 6.08749L8.4074 8.32617C8.34811 8.72578 8.75891 9.03515 9.12313 8.85039L11.1094 7.78476L13.0787 8.8375C13.4429 9.02226 13.8156 8.71289 13.7945 8.30898L13.4133 6.0746L15.0226 4.49808Z" fill="#F4900C"/>
<path d="M14.4701 3.49808C14.7581 3.20503 14.5887 2.71089 14.1949 2.64902L11.9799 2.32503L10.9804 0.272071C10.8152 -0.0829366 10.2986 -0.0983624 10.1165 0.272071L9.11697 2.32503L6.90201 2.64902C6.50815 2.71089 6.33874 3.20503 6.62673 3.49808L8.23607 5.08749L7.85491 7.32617C7.79562 7.72578 8.20642 8.03515 8.57064 7.85039L10.5569 6.78476L12.5262 7.8375C12.8904 8.02226 13.2631 7.71289 13.242 7.30898L12.8608 5.0746L14.4701 3.49808Z" fill="#FFCC4D"/>
</svg>
