<svg width="30" height="30" viewBox="0 0 30 30" fill="none" xmlns="http://www.w3.org/2000/svg">
<path d="M17.2941 18.9705V6.93113M17.2941 18.9705L25.712 23.7035C25.9446 23.8342 26.2079 23.9025 26.4758 23.9016C26.7436 23.9007 27.0065 23.8306 27.2381 23.6984C27.4698 23.5661 27.6621 23.3763 27.7958 23.148C27.9295 22.9196 27.9999 22.6607 28 22.3972V3.50443C27.9999 3.2409 27.9295 2.982 27.7958 2.75365C27.6621 2.5253 27.4698 2.3355 27.2381 2.20324C27.0065 2.07098 26.7436 2.0009 26.4758 2.00001C26.2079 1.99912 25.9446 2.06745 25.712 2.19816L17.2941 6.93113M17.2941 18.9705H12.7059M17.2941 6.93113H8.11765C6.49515 6.93113 4.9391 7.56535 3.79182 8.69426C2.64454 9.82316 2 11.3543 2 12.9508C2 14.5473 2.64454 16.0785 3.79182 17.2074C4.9391 18.3363 6.49515 18.9705 8.11765 18.9705M12.7059 18.9705V25.7426C12.7059 26.3413 12.4642 26.9155 12.034 27.3388C11.6037 27.7622 11.0202 28 10.4118 28C9.80333 28 9.21981 27.7622 8.78958 27.3388C8.35935 26.9155 8.11765 26.3413 8.11765 25.7426V18.9705M12.7059 18.9705H8.11765" stroke="#635FFA" stroke-width="4" stroke-linecap="round" stroke-linejoin="round"/>
</svg>
