<svg width="30" height="30" viewBox="0 0 30 30" fill="none" xmlns="http://www.w3.org/2000/svg">
<path d="M1.66667 16.6667H11.6667C12.5833 16.6667 13.3333 15.9167 13.3333 15V1.66667C13.3333 0.75 12.5833 0 11.6667 0H1.66667C0.75 0 0 0.75 0 1.66667V15C0 15.9167 0.75 16.6667 1.66667 16.6667ZM1.66667 30H11.6667C12.5833 30 13.3333 29.25 13.3333 28.3333V21.6667C13.3333 20.75 12.5833 20 11.6667 20H1.66667C0.75 20 0 20.75 0 21.6667V28.3333C0 29.25 0.75 30 1.66667 30ZM18.3333 30H28.3333C29.25 30 30 29.25 30 28.3333V15C30 14.0833 29.25 13.3333 28.3333 13.3333H18.3333C17.4167 13.3333 16.6667 14.0833 16.6667 15V28.3333C16.6667 29.25 17.4167 30 18.3333 30ZM16.6667 1.66667V8.33333C16.6667 9.25 17.4167 10 18.3333 10H28.3333C29.25 10 30 9.25 30 8.33333V1.66667C30 0.75 29.25 0 28.3333 0H18.3333C17.4167 0 16.6667 0.75 16.6667 1.66667Z" fill="#635FFA"/>
</svg>
