<svg width="24" height="30" viewBox="0 0 24 30" fill="none" xmlns="http://www.w3.org/2000/svg">
<path d="M17.8676 9H5.95588V6H17.8676V9ZM17.8676 12H5.95588V15H17.8676V12ZM23.8235 3V21L14.8897 30H2.97794C2.18814 30 1.43069 29.6839 0.872219 29.1213C0.313746 28.5587 0 27.7957 0 27V3C0 2.20435 0.313746 1.44129 0.872219 0.87868C1.43069 0.31607 2.18814 0 2.97794 0H20.8456C21.6354 0 22.3928 0.31607 22.9513 0.87868C23.5098 1.44129 23.8235 2.20435 23.8235 3ZM20.8456 18V3H2.97794V27H11.9118V21C11.9118 20.2043 12.2255 19.4413 12.784 18.8787C13.3425 18.3161 14.0999 18 14.8897 18H20.8456Z" fill="#635FFA"/>
</svg>
