<svg width="17" height="30" viewBox="0 0 17 30" fill="none" xmlns="http://www.w3.org/2000/svg">
<path fill-rule="evenodd" clip-rule="evenodd" d="M2.23269 29.2832C2.99615 29.7439 3.93582 30 5.05682 30C6.17782 30 7.11749 29.7439 7.88095 29.2832C8.64278 28.8235 9.14876 28.2087 9.47736 27.6138C9.80107 27.0278 9.9562 26.4566 10.0325 26.0419C10.0713 25.8315 10.0914 25.6523 10.1019 25.519C10.1072 25.4521 10.1101 25.396 10.1117 25.3524C10.1125 25.3306 10.113 25.3119 10.1133 25.2964L10.1136 25.2757L10.1136 25.2672L10.1136 25.2634L10.1136 25.2617C10.1136 25.2617 10.1136 25.26 8.63637 25.26L10.1136 25.26L10.1136 10.14C10.1136 9.31157 9.45224 8.64 8.63636 8.64C7.82049 8.64 7.15909 9.31157 7.15909 10.14L7.15909 25.2441C7.15881 25.2504 7.15817 25.2624 7.15682 25.2794C7.15336 25.3233 7.14551 25.3972 7.12832 25.4906C7.09281 25.6834 7.02422 25.9222 6.90049 26.1462C6.78164 26.3613 6.61645 26.5565 6.37154 26.7043C6.12825 26.8511 5.72559 27 5.05682 27C4.38805 27 3.98538 26.8511 3.7421 26.7043C3.49718 26.5565 3.33199 26.3613 3.21315 26.1462C3.08942 25.9222 3.02083 25.6834 2.98531 25.4906C2.96813 25.3972 2.96028 25.3233 2.95682 25.2794C2.95547 25.2624 2.95483 25.2504 2.95455 25.2441L2.95454 7.9864L2.95528 7.95928C2.95627 7.93024 2.9585 7.88043 2.96346 7.81286C2.9734 7.6772 2.99406 7.47313 3.03664 7.22408C3.12298 6.71914 3.29296 6.06746 3.61845 5.4329C3.9403 4.80545 4.4031 4.21456 5.07811 3.77591C5.74676 3.34139 6.70952 3 8.125 3C9.54048 3 10.5032 3.34139 11.1719 3.7759C11.8469 4.21456 12.3097 4.80545 12.6315 5.4329C12.957 6.06746 13.127 6.71914 13.2134 7.22408C13.2559 7.47313 13.2766 7.6772 13.2865 7.81286C13.2915 7.88043 13.2937 7.93024 13.2947 7.95928L13.2955 7.9864L13.2955 22.2C13.2955 23.0284 13.9569 23.7 14.7727 23.7C15.5886 23.7 16.25 23.0284 16.25 22.2L16.25 7.98L14.7727 7.98C16.25 7.98 16.25 7.97839 16.25 7.97839L16.25 7.97664L16.25 7.97267L16.2499 7.9629L16.2496 7.93621C16.2492 7.91529 16.2486 7.88814 16.2475 7.85517C16.2452 7.78929 16.241 7.69988 16.2329 7.59026C16.2169 7.37155 16.1856 7.06937 16.1244 6.71092C16.003 6.00085 15.7574 5.03253 15.252 4.04709C14.7429 3.05455 13.9592 2.02544 12.7645 1.24909C11.5635 0.468608 10.0334 -8.77146e-07 8.125 -7.1031e-07C6.21662 -5.43474e-07 4.68648 0.468608 3.48545 1.24909C2.29079 2.02544 1.50714 3.05455 0.998023 4.0471C0.49255 5.03254 0.247048 6.00085 0.125641 6.71092C0.0643533 7.06937 0.033081 7.37155 0.0170541 7.59026C0.00902174 7.69988 0.0047638 7.78929 0.00251073 7.85517C0.00138348 7.88814 0.000755583 7.91529 0.000409364 7.93621L7.38865e-05 7.9629L1.36596e-05 7.97267L1.5087e-06 7.97664L-1.13272e-06 7.9784C-1.13272e-06 7.9784 -1.92505e-06 7.98 1.47727 7.98L-1.92505e-06 7.98L-4.14384e-07 25.26L1.47727 25.26C-4.14384e-07 25.26 4.66286e-07 25.2617 4.66286e-07 25.2617L3.37217e-06 25.2634L1.56998e-05 25.2672L7.17899e-05 25.2757L0.000350565 25.2964C0.000625994 25.3119 0.00110209 25.3306 0.00190522 25.3524C0.00350972 25.396 0.00643059 25.4521 0.0117107 25.519C0.022229 25.6523 0.0423492 25.8315 0.0810922 26.0419C0.157441 26.4566 0.312571 27.0278 0.63628 27.6138C0.964882 28.2087 1.47086 28.8235 2.23269 29.2832Z" fill="#635FFA"/>
</svg>
