<svg width="14" height="15" viewBox="0 0 14 15" fill="none" xmlns="http://www.w3.org/2000/svg">
<path fill-rule="evenodd" clip-rule="evenodd" d="M6.82592 0.333252C10.4059 0.333252 13.3179 3.24525 13.3179 6.82525C13.3179 8.51428 12.6697 10.0548 11.609 11.2109L13.6962 13.2937C13.8915 13.4891 13.8922 13.8051 13.6969 14.0004C13.5995 14.0991 13.4709 14.1477 13.3429 14.1477C13.2155 14.1477 13.0875 14.0991 12.9895 14.0017L10.8772 11.8953C9.76597 12.7851 8.35704 13.3179 6.82592 13.3179C3.24592 13.3179 0.333252 10.4053 0.333252 6.82525C0.333252 3.24525 3.24592 0.333252 6.82592 0.333252ZM6.82592 1.33325C3.79725 1.33325 1.33325 3.79659 1.33325 6.82525C1.33325 9.85392 3.79725 12.3179 6.82592 12.3179C9.85392 12.3179 12.3179 9.85392 12.3179 6.82525C12.3179 3.79659 9.85392 1.33325 6.82592 1.33325Z" fill="#635FFA"/>
</svg>
