<svg width="43" height="47" viewBox="0 0 43 47" fill="none" xmlns="http://www.w3.org/2000/svg">
<path opacity="0.7" d="M2.08176 0.642348C2.77359 0.214287 3.5701 -0.00819891 4.38057 0.000230961H38.7799C39.7305 0.0198624 40.6478 0.358408 41.3883 0.962891C42.1289 1.56737 42.6508 2.40368 42.8725 3.34095C42.9754 3.82562 43.0163 4.32171 42.9941 4.81697V23.9538H40.3373C40.2128 23.9587 40.0887 23.9712 39.9657 23.9914C39.6391 23.9667 39.3115 23.9605 38.9843 23.9726C38.4776 23.9846 37.954 23.9486 37.4405 23.9966C37.2167 23.965 36.9907 23.9536 36.7649 23.9623H28.7604C28.4226 23.9623 28.0983 23.976 27.769 23.9452L27.9379 23.8339L17.2073 17.3049V23.964C13.4694 23.9555 9.72982 23.964 5.99193 23.964C5.85006 23.9681 5.70853 23.9801 5.56798 24C5.2099 23.9452 4.84675 23.9726 4.4836 23.9726C4.00391 23.9829 3.52084 23.9469 3.04283 23.9983C2.90129 23.9768 2.75857 23.9642 2.6155 23.9606H0.0126604C0.0227948 17.7364 0.0126604 11.5121 0.0126604 5.29641C-0.0231599 4.64833 0.0170964 3.99824 0.132583 3.35979C0.263578 2.79847 0.503362 2.26915 0.837987 1.80263C1.17261 1.33612 1.5954 0.941707 2.08176 0.642348ZM2.99385 4.38889C2.76263 4.44542 2.55631 4.5778 2.40695 4.76544C2.25759 4.95309 2.17355 5.1855 2.1679 5.42655V7.67995C2.18444 7.9549 2.30268 8.21341 2.49899 8.40385C2.69531 8.5943 2.95526 8.70268 3.22694 8.70734H5.43792C5.70392 8.69153 5.9547 8.57637 6.14186 8.38411C6.32902 8.19184 6.43928 7.9361 6.45135 7.66625C6.4598 6.93681 6.45135 6.20565 6.45135 5.47621C6.4554 5.27645 6.40584 5.07934 6.30796 4.90592C6.21008 4.73251 6.06757 4.58931 5.89565 4.49163C5.70914 4.39409 5.5006 4.34803 5.29097 4.35807H3.3722C3.24537 4.35499 3.11857 4.36532 2.99385 4.38889ZM37.351 4.38889C37.1242 4.4503 36.9234 4.585 36.7789 4.77256C36.6344 4.96012 36.5542 5.19032 36.5504 5.42826V7.66454C36.5625 7.93439 36.6727 8.19013 36.8599 8.38239C37.047 8.57466 37.2978 8.68982 37.5638 8.70563C38.3003 8.71419 39.0367 8.70563 39.7731 8.70563C40.0464 8.70079 40.3078 8.59098 40.5044 8.39838C40.7009 8.20578 40.8181 7.94474 40.8321 7.66797C40.8423 6.91797 40.8321 6.16798 40.8321 5.41799C40.8256 5.1459 40.7192 4.88607 40.5336 4.68939C40.348 4.4927 40.0967 4.37333 39.8288 4.35464C39.2411 4.33923 38.6465 4.35464 38.0638 4.35464C37.8254 4.34252 37.5865 4.35629 37.351 4.39574V4.38889ZM2.99723 10.9248C2.82403 10.9661 2.66364 11.0502 2.5304 11.1698C2.39716 11.2893 2.29525 11.4405 2.23377 11.6097C2.17143 11.824 2.14796 12.0479 2.16452 12.2707V14.2141C2.17945 14.4817 2.29102 14.7343 2.47794 14.9238C2.66485 15.1133 2.91404 15.2264 3.17796 15.2415C3.85358 15.2552 4.52076 15.2415 5.19132 15.2415C5.41935 15.2604 5.64847 15.2222 5.85849 15.1302C6.04029 15.0403 6.19362 14.9006 6.30109 14.7269C6.40856 14.5532 6.46588 14.3524 6.46656 14.1474V11.9573C6.46109 11.6827 6.35375 11.4202 6.16594 11.2222C5.97812 11.0241 5.72362 10.9051 5.45312 10.8888C4.88222 10.8751 4.30963 10.8888 3.73704 10.8888C3.48987 10.8778 3.24222 10.8898 2.99723 10.9248ZM37.3493 10.9248C37.182 10.9708 37.0281 11.0571 36.9008 11.1763C36.7734 11.2956 36.6764 11.4443 36.618 11.6097C36.5552 11.8245 36.5317 12.0491 36.5487 12.2724V14.209C36.5615 14.4808 36.6738 14.7379 36.8637 14.9302C37.0537 15.1224 37.3075 15.2359 37.5756 15.2484C38.2614 15.2586 38.9472 15.2484 39.6329 15.2484C39.8548 15.2626 40.0764 15.2165 40.2748 15.1148C40.4447 15.0214 40.5869 14.8835 40.6864 14.7154C40.7859 14.5474 40.8392 14.3553 40.8406 14.1593V11.9607C40.8349 11.6885 40.729 11.4283 40.5436 11.2312C40.3583 11.0341 40.1069 10.9144 39.839 10.8957C39.2495 10.8803 38.6566 10.8957 38.0705 10.8957C37.8289 10.881 37.5865 10.8936 37.3476 10.9333L37.3493 10.9248ZM2.99554 17.4658C2.76315 17.5218 2.55566 17.6544 2.40558 17.8428C2.2555 18.0312 2.17132 18.2648 2.16621 18.5069C2.16621 19.2569 2.15777 20.0086 2.16621 20.7586C2.18237 21.0337 2.30048 21.2924 2.49688 21.4829C2.69328 21.6735 2.95345 21.7817 3.22525 21.786H5.42103C5.68914 21.7735 5.943 21.66 6.13294 21.4678C6.32288 21.2756 6.43522 21.0184 6.44798 20.7466V18.5086C6.4432 18.232 6.33507 17.9675 6.1454 17.7685C5.95573 17.5696 5.69866 17.451 5.42609 17.4367C4.8383 17.4247 4.24375 17.4367 3.66103 17.4367C3.43879 17.4254 3.21599 17.4352 2.99554 17.4658ZM37.3426 17.4761C37.1771 17.5215 37.0249 17.6065 36.8985 17.7239C36.7721 17.8413 36.6753 17.9876 36.6163 18.1507C36.5532 18.3649 36.5298 18.5889 36.547 18.8117V20.7483C36.5593 21.0201 36.6712 21.2775 36.8609 21.47C37.0505 21.6626 37.3042 21.7765 37.5723 21.7894C38.307 21.798 39.0417 21.7894 39.7782 21.7894C40.0515 21.785 40.3131 21.6756 40.5099 21.4834C40.7068 21.2911 40.8244 21.0302 40.8389 20.7535C40.849 20.0035 40.8389 19.2535 40.8389 18.5052C40.8333 18.2332 40.7276 17.9732 40.5426 17.7762C40.3576 17.5791 40.1066 17.4593 39.839 17.4401C39.2495 17.423 38.6566 17.4401 38.0722 17.4401C37.8294 17.4208 37.5852 17.4294 37.3442 17.4658L37.3426 17.4761Z" fill="#4AB9E7"/>
<path d="M17.0012 17C20.6669 19.1684 24.3331 21.335 28 23.5L27.8269 23.6108C24.2177 25.7383 20.6103 27.868 17.0046 30V23.6313C17.0029 21.4237 16.9977 19.2161 17.0012 17Z" fill="white"/>
<path d="M0.0156233 23.0188H2.61814C2.76119 23.0224 2.90389 23.035 3.04542 23.0565C2.76332 23.1136 2.51501 23.2816 2.35468 23.5236C2.20413 23.7926 2.13869 24.1019 2.16722 24.4099V26.1978C2.16655 26.3523 2.19597 26.5053 2.25379 26.6482C2.3116 26.7911 2.39669 26.921 2.50415 27.0305C2.61162 27.14 2.73937 27.227 2.88006 27.2864C3.02076 27.3458 3.17165 27.3765 3.32408 27.3767H5.33718C5.60522 27.3712 5.86288 27.2708 6.06554 27.093C6.26819 26.9152 6.40305 26.6711 6.44676 26.4032C6.46027 25.6383 6.44676 24.8633 6.44676 24.1053C6.44315 23.8542 6.35337 23.6121 6.19281 23.4207C6.03225 23.2293 5.81094 23.1006 5.56687 23.0565C5.7074 23.0366 5.84892 23.0246 5.99077 23.0205H17.2047V29.4128C20.7254 27.2786 24.2444 25.141 27.7617 23C28.0995 23.0308 28.4221 23.012 28.7531 23.0171H36.7599C36.9856 23.0084 37.2117 23.0198 37.4354 23.0513C37.2579 23.0842 37.0914 23.1617 36.9512 23.2768C36.811 23.3919 36.7017 23.5409 36.6332 23.7101C36.5599 23.9342 36.534 24.1715 36.5572 24.4064V26.1414C36.5474 26.3015 36.5704 26.4619 36.625 26.6125C36.6795 26.7631 36.7643 26.9005 36.874 27.0162C36.9837 27.1318 37.1159 27.2231 37.2623 27.2843C37.4086 27.3455 37.5659 27.3752 37.7242 27.3716H39.6833C39.9828 27.3727 40.271 27.2559 40.4871 27.0459C40.7033 26.8358 40.8305 26.5489 40.8418 26.2457V24.5621C40.8808 24.2168 40.8222 23.8673 40.673 23.5544C40.5948 23.4263 40.4916 23.3158 40.3695 23.2299C40.2475 23.1439 40.1094 23.0843 39.9636 23.0548C40.0866 23.0346 40.2107 23.022 40.3352 23.0171H42.9917C43.0103 25.9617 42.9917 28.908 42.9917 31.8544V42.6216C42.9867 43.6572 42.6207 44.6577 41.9582 45.4464C41.2851 46.2494 40.347 46.7771 39.3185 46.9316C38.768 46.9869 38.2146 47.0057 37.6617 46.988H5.84046C5.0694 47.0184 4.29718 46.9909 3.53012 46.9059C2.73069 46.755 1.98956 46.3786 1.39201 45.8198C0.794459 45.261 0.36478 44.5427 0.15242 43.7474C0.0458795 43.3307 -0.0052379 42.9015 0.000423548 42.471V24.5638C0.0122455 24.0505 -0.00295404 23.5338 0.0156233 23.0188ZM3.04711 29.5941C2.78745 29.6387 2.55433 29.7819 2.39521 29.9945C2.23669 30.2272 2.15725 30.5059 2.16891 30.7884V32.7766C2.1807 33.0796 2.30801 33.3663 2.52406 33.5762C2.74011 33.7862 3.02808 33.9031 3.32745 33.9024H5.49425C5.77461 33.8529 6.02725 33.7008 6.20412 33.4749C6.38099 33.2491 6.46975 32.9652 6.45351 32.6773V30.6396C6.45428 30.4923 6.42462 30.3465 6.36645 30.2115C6.30828 30.0766 6.22288 29.9555 6.11574 29.8559C5.88711 29.6582 5.59368 29.5545 5.29327 29.5651H3.37474C3.26487 29.5643 3.15518 29.5741 3.04711 29.5941ZM37.4422 29.5941C37.2053 29.6322 36.9884 29.7516 36.828 29.9322C36.6675 30.1128 36.5731 30.3438 36.5606 30.5865V32.6773C36.5507 32.8372 36.5738 32.9974 36.6282 33.1478C36.6827 33.2982 36.7673 33.4355 36.8769 33.5509C36.9864 33.6664 37.1185 33.7576 37.2646 33.8187C37.4108 33.8798 37.5679 33.9095 37.7259 33.9058C38.4487 33.9058 39.1733 33.9144 39.8961 33.9058C40.1632 33.8514 40.4035 33.7052 40.5765 33.492C40.7494 33.2787 40.8443 33.0115 40.8452 32.7355V31.0023C40.884 30.664 40.8109 30.3222 40.6375 30.0304C40.5334 29.8884 40.3979 29.7731 40.2419 29.6938C40.0858 29.6144 39.9136 29.5733 39.739 29.5736H38.1279C37.8992 29.5589 37.6697 29.5652 37.4422 29.5924V29.5941ZM3.04879 36.125C2.91391 36.147 2.7847 36.196 2.66871 36.2691C2.55272 36.3423 2.45228 36.4381 2.37326 36.551C2.22676 36.7784 2.15359 37.0462 2.16384 37.3175V39.2544C2.16579 39.541 2.2691 39.8173 2.45503 40.0333C2.64096 40.2493 2.89717 40.3906 3.17715 40.4315H5.501C5.78136 40.3817 6.03385 40.2291 6.21041 40.0029C6.38697 39.7767 6.4753 39.4926 6.45858 39.2048V37.1704C6.45958 37.0229 6.43004 36.8767 6.37186 36.7415C6.31368 36.6062 6.22816 36.4848 6.12081 36.3851C5.89365 36.1883 5.60213 36.0845 5.30341 36.0942H3.37643C3.2665 36.0939 3.1568 36.1042 3.04879 36.125ZM37.4371 36.125C37.2451 36.1559 37.0654 36.2408 36.9185 36.3699C36.7717 36.499 36.6635 36.6673 36.6062 36.8556C36.5587 37.0397 36.5421 37.2305 36.5572 37.4202V39.4648C36.6019 39.7318 36.7369 39.9746 36.9391 40.1516C37.1413 40.3286 37.398 40.4288 37.6651 40.435H39.6799C39.8367 40.4344 39.9917 40.4018 40.1357 40.3391C40.2797 40.2763 40.4096 40.1848 40.5178 40.0699C40.626 39.955 40.7102 39.8191 40.7653 39.6705C40.8204 39.5218 40.8453 39.3634 40.8385 39.2048V37.2132C40.8392 37.0296 40.7956 36.8486 40.7114 36.6861C40.6272 36.5235 40.505 36.3843 40.3555 36.2807C39.9381 36.0947 39.478 36.0296 39.0263 36.0925C38.4994 36.1096 37.964 36.0583 37.4388 36.1233L37.4371 36.125Z" fill="#4AB9E7"/>
</svg>
