<svg width="47" height="53" viewBox="0 0 47 53" fill="none" xmlns="http://www.w3.org/2000/svg">
<path d="M23.3113 40.751H23.25C12.0132 40.7641 0.469727 43.8614 0.469727 51.6986V52.991H46.0302V51.6986C46.0302 44.3082 34.5963 40.751 23.3113 40.751Z" fill="url(#paint0_linear_2497_986)"/>
<path d="M24.2488 48.3169L25.287 46.2799L23.25 43.8835L21.2129 46.2799L22.2511 48.3169L20.9938 53H25.5061L24.2488 48.3169Z" fill="#2B2E4A"/>
<path d="M28.0776 38.7273H18.4223L15.5353 41.8464L19.6884 48.2819L23.25 43.8835L26.8116 48.2819L30.9646 41.8464L28.0776 38.7273Z" fill="url(#paint1_linear_2497_986)"/>
<path d="M23.25 35.6388H19.2722V40.0109C19.2722 41.9866 20.8931 43.59 22.8908 43.59H23.6136C25.6112 43.59 27.2321 41.9866 27.2321 40.0109V35.6388H23.25ZM35.2228 20.7878H11.2772C8.69691 20.7878 6.58536 23.0396 6.58536 25.7864C6.58536 28.5331 8.69691 30.7849 11.2772 30.7849H35.2184C37.7987 30.7849 39.9102 28.5331 39.9102 25.7864C39.9102 23.0396 37.8031 20.7878 35.2228 20.7878Z" fill="#EDC391"/>
<path d="M23.25 3.54468C15.6273 3.54468 8.56546 11.6974 8.56546 23.4336C8.56546 35.1041 15.842 40.8736 23.25 40.8736C30.6579 40.8736 37.9345 35.0997 37.9345 23.4292C37.9345 11.6974 30.8726 3.54468 23.25 3.54468Z" fill="#F9DDBD"/>
<path d="M16.0479 26.693C17.2407 26.693 18.2076 25.6928 18.2076 24.4588C18.2076 23.2249 17.2407 22.2246 16.0479 22.2246C14.8551 22.2246 13.8882 23.2249 13.8882 24.4588C13.8882 25.6928 14.8551 26.693 16.0479 26.693Z" fill="#2B2E4A"/>
<path d="M30.452 26.693C31.6448 26.693 32.6118 25.6928 32.6118 24.4588C32.6118 23.2249 31.6448 22.2246 30.452 22.2246C29.2592 22.2246 28.2923 23.2249 28.2923 24.4588C28.2923 25.6928 29.2592 26.693 30.452 26.693Z" fill="#2B2E4A"/>
<path d="M24.941 28.5111C24.8928 28.4936 24.849 28.4805 24.8008 28.4761H21.6992C21.651 28.4805 21.6028 28.4936 21.559 28.5111C21.2786 28.625 21.1253 28.9142 21.2567 29.2252C21.3881 29.5362 22.0058 30.4036 23.25 30.4036C24.4941 30.4036 25.1118 29.5319 25.2433 29.2252C25.3747 28.9142 25.2214 28.625 24.941 28.5111Z" fill="#DBA689"/>
<path d="M26.9386 32.0507C25.5455 32.8787 20.9676 32.8787 19.5745 32.0507C18.7728 31.5732 17.9536 32.3048 18.2865 33.032C18.6151 33.7461 21.1078 35.4064 23.2675 35.4064C25.4273 35.4064 27.8893 33.7461 28.2178 33.032C28.5464 32.3048 27.7403 31.5732 26.9386 32.0507Z" fill="#2B2E4A"/>
<path d="M23.25 0.460693H23.2324C3.33039 0.565833 7.40893 23.3023 7.40893 23.3023C7.40893 23.3023 8.30261 25.646 8.71003 26.6799C8.76698 26.8288 8.98602 26.8113 9.02107 26.658C9.44601 24.7567 10.9749 18.0146 11.7459 15.9644C11.9662 15.3803 12.3848 14.8921 12.9286 14.5854C13.4724 14.2787 14.1066 14.1729 14.7205 14.2866C16.67 14.6414 19.7804 15.0795 23.2062 15.0795H23.2762C26.702 15.0795 29.8124 14.6414 31.7619 14.2866C33.0323 14.0544 34.2852 14.7597 34.7365 15.9644C35.5031 18.0059 37.0233 24.7085 37.4526 26.6361C37.4876 26.7938 37.7067 26.8069 37.7636 26.658L39.0691 23.2979C39.0779 23.3023 43.1564 0.565833 23.25 0.460693Z" fill="#312D2D"/>
<path d="M39.0779 23.3023C39.0779 23.3023 43.1564 0.565833 23.25 0.460693H23.2325C22.9214 0.460693 22.6191 0.469455 22.3212 0.482597C21.7298 0.508882 21.1559 0.55269 20.604 0.618403H20.5864C20.547 0.622783 20.512 0.631545 20.4725 0.635926C3.7203 2.7431 7.40895 23.3023 7.40895 23.3023L8.71443 26.6667C8.77138 26.8157 8.98604 26.8025 9.02109 26.6448C9.45041 24.7217 10.9749 18.0102 11.746 15.9688C11.9662 15.3846 12.3849 14.8965 12.9286 14.5898C13.4724 14.2831 14.1067 14.1773 14.7205 14.2909C16.67 14.6458 19.7804 15.0839 23.2062 15.0839H23.2763C26.7021 15.0839 29.8124 14.6458 31.7619 14.2909C33.0323 14.0587 34.2853 14.7641 34.7365 15.9688C35.5075 18.019 37.0364 24.7742 37.457 26.6667C37.492 26.8245 37.7067 26.8376 37.7636 26.6886C38.1798 25.6548 39.0779 23.3023 39.0779 23.3023Z" fill="url(#paint2_radial_2497_986)"/>
<path d="M12.7404 20.9147C14.0503 19.0616 17.0248 18.8864 18.729 20.2663C19.0006 20.4854 19.3598 20.792 19.465 21.1337C19.6402 21.6901 19.1057 22.1238 18.5844 21.9924C18.2515 21.9091 17.9404 21.7295 17.6119 21.6287C17.0117 21.4404 16.578 21.3878 16.0392 21.3878C15.2418 21.3834 14.7293 21.4842 13.9714 21.7908C13.6604 21.9179 13.4063 22.1194 13.0514 21.9704C12.644 21.804 12.4907 21.2827 12.7404 20.9147ZM32.9184 21.9704C32.7914 21.9135 32.6687 21.8434 32.5417 21.7908C31.7619 21.4667 31.3194 21.3834 30.4739 21.3878C29.7292 21.3922 29.2867 21.4929 28.7041 21.6901C28.3493 21.8127 27.898 22.1194 27.5038 22.0011C26.9255 21.8259 26.943 21.195 27.2584 20.792C27.6352 20.3189 28.1521 19.9597 28.6997 19.7231C29.9702 19.1711 31.521 19.25 32.7169 19.964C33.1068 20.1962 33.5318 20.516 33.7683 20.9191C34.11 21.4886 33.5931 22.2464 32.9184 21.9704Z" fill="#2B2E4A"/>
<defs>
<linearGradient id="paint0_linear_2497_986" x1="23.25" y1="40.6143" x2="23.25" y2="52.8854" gradientUnits="userSpaceOnUse">
<stop offset="0.003" stop-color="#635FFA" stop-opacity="0.1"/>
<stop offset="0.225" stop-color="#635FFA" stop-opacity="0.4"/>
<stop offset="0.635" stop-color="#635FFA" stop-opacity="0.7"/>
<stop offset="1" stop-color="#635FFA"/>
</linearGradient>
<linearGradient id="paint1_linear_2497_986" x1="23.25" y1="47.6208" x2="23.25" y2="39.6332" gradientUnits="userSpaceOnUse">
<stop offset="0.5" stop-color="#F5F5F5"/>
<stop offset="1" stop-color="#DADADA"/>
</linearGradient>
<radialGradient id="paint2_radial_2497_986" cx="0" cy="0" r="1" gradientUnits="userSpaceOnUse" gradientTransform="translate(23.2425 19.3278) scale(16.6878 18.8272)">
<stop offset="0.794" stop-color="#454140" stop-opacity="0"/>
<stop offset="1" stop-color="#454140"/>
</radialGradient>
</defs>
</svg>
