<svg width="54" height="53" viewBox="0 0 54 53" fill="none" xmlns="http://www.w3.org/2000/svg">
<path d="M9.63568 49.6606V4.55551L26.2345 2.02588L44.5467 4.70165V49.6606L27.3532 50.5525L9.63568 49.6606Z" fill="white"/>
<path opacity="0.3" d="M9.63568 49.6606V4.55551L26.2345 2.02588L44.5467 4.70165V49.6606L27.3532 50.5525L9.63568 49.6606Z" fill="#BDBDBD"/>
<path d="M9.6408 0.907227L44.572 0.912266L44.5468 4.70168L9.63576 4.55554L9.6408 0.907227ZM9.23765 49.1618L18.8573 49.0257C18.8573 49.0257 18.8321 33.4498 18.8573 32.825C18.8725 32.3715 18.9833 31.9986 19.5628 31.9582C20.1423 31.9179 33.5817 31.9179 34.0805 31.9179C34.5744 31.9179 34.9473 32.2052 34.9473 32.9106V49.0005C34.9473 49.0005 45.0708 48.809 45.0607 48.9653C45.0456 49.1215 45.0859 51.2732 45.0859 51.5654C45.0859 51.8527 44.96 52.2709 44.1739 52.2709H9.90785C9.57527 52.2709 9.24773 51.9383 9.24773 51.5251C9.24773 51.1119 9.23765 49.1618 9.23765 49.1618Z" fill="white"/>
<path opacity="0.5" d="M9.6408 0.907227L44.572 0.912266L44.5468 4.70168L9.63576 4.55554L9.6408 0.907227ZM9.23765 49.1618L18.8573 49.0257C18.8573 49.0257 18.8321 33.4498 18.8573 32.825C18.8725 32.3715 18.9833 31.9986 19.5628 31.9582C20.1423 31.9179 33.5817 31.9179 34.0805 31.9179C34.5744 31.9179 34.9473 32.2052 34.9473 32.9106V49.0005C34.9473 49.0005 45.0708 48.809 45.0607 48.9653C45.0456 49.1215 45.0859 51.2732 45.0859 51.5654C45.0859 51.8527 44.96 52.2709 44.1739 52.2709H9.90785C9.57527 52.2709 9.24773 51.9383 9.24773 51.5251C9.24773 51.1119 9.23765 49.1618 9.23765 49.1618Z" fill="#0ED946"/>
<path d="M22.6215 6.12788H31.6718V11.4895H22.6215V6.12788ZM22.5762 14.8355H31.7171V19.9854H22.5762V14.8355ZM22.4905 23.5481H31.7171V29.081H22.4905V23.5481ZM36.2221 6.29921C36.1767 6.43023 36.2221 11.6205 36.2221 11.6205L41.745 11.6054C41.745 11.6054 41.8205 6.36472 41.7147 6.25889C41.6089 6.15307 36.2624 6.16819 36.2221 6.29921ZM36.3078 14.6641L36.3481 19.9401L41.5837 19.8998L41.6694 14.7498L36.3078 14.6641ZM36.5648 23.5884C36.5648 23.5884 36.4337 28.693 36.5194 28.824C36.6051 28.9551 41.5837 28.9551 41.755 28.824C41.9264 28.693 41.755 23.6338 41.755 23.6338L36.5648 23.5884ZM36.5899 32.1095L36.6303 37.4157C36.6303 37.4157 41.5736 37.5316 41.6895 37.4157C41.8054 37.2998 41.9213 32.2254 41.7651 32.1095C41.6089 31.9936 36.5899 32.1095 36.5899 32.1095ZM36.731 40.7516L36.8016 46.0225C36.8016 46.0225 41.6744 46.0628 41.7802 45.9873C41.8861 45.9117 41.8911 40.9431 41.8205 40.7919C41.75 40.6408 36.731 40.7516 36.731 40.7516ZM12.0999 6.11276C12.0545 6.24378 12.0999 11.4341 12.0999 11.4341L17.5925 11.3484C17.5925 11.3484 17.6983 6.17827 17.5925 6.07245C17.4867 5.96159 12.1452 5.98174 12.0999 6.11276ZM12.2258 14.8153C12.2258 14.8153 12.0898 19.9602 12.2611 20.0459C12.4324 20.1316 17.3506 20.1769 17.5219 20.0459C17.6933 19.9149 17.5522 14.7649 17.5522 14.7649L12.2258 14.8153ZM12.3115 23.5985C12.2158 23.669 12.1805 28.7031 12.2661 28.8341C12.3518 28.9651 17.3305 28.9651 17.5018 28.8341C17.6731 28.7031 17.6328 23.7698 17.5018 23.6438C17.3708 23.5179 12.4828 23.4725 12.3115 23.5985ZM12.1402 32.1851C12.0041 32.3212 12.0646 37.3754 12.1805 37.4913C12.2964 37.6072 17.2398 37.4913 17.2398 37.4913L17.3153 32.1851C17.3153 32.1851 12.2913 32.034 12.1402 32.1851ZM12.1704 40.6156V45.9318L17.1188 45.8865L17.2297 40.6559L12.1704 40.6156Z" fill="white"/>
<path d="M21.1249 49.1767C21.0896 49.1415 21.0191 39.1136 21.1602 38.9322C21.3063 38.7508 32.6695 38.8617 32.7753 38.9675C32.8811 39.0733 32.8459 49.1062 32.8106 49.1767C32.7753 49.2473 21.1249 49.1767 21.1249 49.1767Z" fill="#E1E1E1"/>
<path d="M22.1932 39.9099H26.4613V48.3051H22.1932V39.9099ZM27.5598 39.8948H31.9187V48.2899H27.5598V39.8948Z" fill="#2B2E4A"/>
<path d="M48.7296 52.3294C48.5346 52.3294 48.3475 52.2527 48.2097 52.1163C48.0718 51.9798 47.9943 51.7947 47.9943 51.6017V31.0785C47.9943 30.8855 48.0718 30.7004 48.2097 30.564C48.3475 30.4275 48.5346 30.3508 48.7296 30.3508C48.9246 30.3508 49.1116 30.4275 49.2495 30.564C49.3874 30.7004 49.4649 30.8855 49.4649 31.0785V51.6017C49.4648 51.7947 49.3874 51.9798 49.2495 52.1162C49.1116 52.2527 48.9246 52.3294 48.7296 52.3294ZM5.58332 51.7827V47.0984C5.585 47.0018 5.56723 46.9059 5.53103 46.8161C5.49484 46.7264 5.44096 46.6447 5.37252 46.5758C5.30409 46.5069 5.22247 46.4522 5.13244 46.4148C5.04241 46.3775 4.94577 46.3582 4.84814 46.3582C4.75052 46.3582 4.65387 46.3775 4.56384 46.4148C4.47381 46.4522 4.3922 46.5069 4.32376 46.5758C4.25533 46.6447 4.20144 46.7264 4.16525 46.8161C4.12906 46.9059 4.11128 47.0018 4.11296 47.0984V51.7827C4.11128 51.8793 4.12906 51.9753 4.16525 52.065C4.20144 52.1548 4.25533 52.2365 4.32376 52.3054C4.3922 52.3743 4.47381 52.429 4.56384 52.4663C4.65387 52.5037 4.75052 52.5229 4.84814 52.5229C4.94577 52.5229 5.04241 52.5037 5.13244 52.4663C5.22247 52.429 5.30409 52.3743 5.37252 52.3054C5.44096 52.2365 5.49484 52.1548 5.53103 52.065C5.56723 51.9753 5.585 51.8793 5.58332 51.7827Z" fill="#2B2E4A"/>
<path d="M54.0001 40.8155C54.0001 43.8116 51.5486 46.2405 48.5247 46.2405C45.5007 46.2405 43.0493 43.8116 43.0493 40.8155C43.0493 37.8194 45.5007 35.3905 48.5247 35.3905C51.5486 35.3905 54.0001 37.8194 54.0001 40.8155ZM48.5247 26.3196C46.487 26.3196 44.8351 27.9562 44.8351 29.9752C44.8351 31.9941 46.487 33.6307 48.5247 33.6307C50.5624 33.6307 52.2142 31.9941 52.2142 29.9752C52.2142 27.9562 50.5624 26.3196 48.5247 26.3196ZM5.01213 28.5549C4.90816 28.5207 4.79842 28.5072 4.68918 28.5151C4.57994 28.5229 4.47333 28.552 4.37544 28.6007C4.27755 28.6494 4.1903 28.7167 4.11867 28.7988C4.04704 28.8809 3.99244 28.9762 3.95797 29.0792C3.95797 29.0792 3.87206 29.3359 3.73028 29.7851C3.65706 30.0098 3.57647 30.2824 3.48014 30.5953L3.32795 31.0935L3.16665 31.646C3.05579 32.031 2.92952 32.4481 2.80716 32.8893L2.42197 34.2769C2.28573 34.7582 2.15849 35.2554 2.02181 35.7608L1.62544 37.2929C1.49679 37.8062 1.36391 38.3196 1.24187 38.8249C1.11865 39.3303 0.994336 39.8276 0.881739 40.3089C0.768383 40.7901 0.654701 41.2554 0.554362 41.6965L0.268423 42.9398C0.176328 43.3247 0.121223 43.6777 0.0976839 43.9906C0.0739279 44.3034 0.0779414 44.5761 0.0996364 44.8007C0.119487 45.0253 0.154091 45.2018 0.184681 45.3221C0.214837 45.4423 0.24163 45.5066 0.24163 45.5066C0.720979 46.6435 1.64182 47.613 2.88136 48.122C5.37107 49.1443 8.22569 47.9734 9.2575 45.5066C9.2575 45.5066 9.2843 45.4424 9.31445 45.3221C9.34504 45.2018 9.37965 45.0253 9.3995 44.8007C9.42119 44.5761 9.42531 44.3034 9.40145 43.9906C9.37791 43.6777 9.32281 43.3248 9.23071 42.9398L8.94477 41.6965C8.84443 41.2553 8.73075 40.7901 8.61739 40.3089C8.5048 39.8276 8.38049 39.3303 8.25726 38.8249C8.13522 38.3196 8.00245 37.8063 7.87369 37.2929L7.47732 35.7608C7.34065 35.2554 7.21341 34.7582 7.07716 34.2769L6.69197 32.8893C6.56972 32.4481 6.44345 32.031 6.33248 31.646L6.17118 31.0935L6.01899 30.5953C5.92267 30.2824 5.84218 30.0098 5.76885 29.7851C5.62696 29.336 5.54105 29.0792 5.54105 29.0792C5.46035 28.842 5.27052 28.6397 5.01213 28.5549Z" fill="#0ED946"/>
</svg>
