<svg width="54" height="54" viewBox="0 0 54 54" fill="none" xmlns="http://www.w3.org/2000/svg">
<g clip-path="url(#clip0_2492_928)">
<path d="M48 10.5H6C4.4087 10.5 2.88258 11.1321 1.75736 12.2574C0.632141 13.3826 0 14.9087 0 16.5L0 39C0 40.5913 0.632141 42.1174 1.75736 43.2426C2.88258 44.3679 4.4087 45 6 45H23.124C23.904 45.894 25.3395 46.5 27 46.5C28.6605 46.5 30.0975 45.894 30.876 45H48C49.5913 45 51.1174 44.3679 52.2426 43.2426C53.3679 42.1174 54 40.5913 54 39V16.5C54 14.9087 53.3679 13.3826 52.2426 12.2574C51.1174 11.1321 49.5913 10.5 48 10.5Z" fill="#FF755B"/>
<path d="M30 40.5C30 41.2956 29.6839 42.0587 29.1213 42.6213C28.5587 43.1839 27.7957 43.5 27 43.5C26.2044 43.5 25.4413 43.1839 24.8787 42.6213C24.3161 42.0587 24 41.2956 24 40.5V13.5C24 12.7044 24.3161 11.9413 24.8787 11.3787C25.4413 10.8161 26.2044 10.5 27 10.5C27.7957 10.5 28.5587 10.8161 29.1213 11.3787C29.6839 11.9413 30 12.7044 30 13.5V40.5Z" fill="#2B2E4A"/>
<path d="M27 39C27 39.7956 26.6839 40.5587 26.1213 41.1213C25.5587 41.6839 24.7956 42 24 42H6C5.20435 42 4.44129 41.6839 3.87868 41.1213C3.31607 40.5587 3 39.7956 3 39V12C3 11.2044 3.31607 10.4413 3.87868 9.87868C4.44129 9.31607 5.20435 9 6 9H24C24.7956 9 25.5587 9.31607 26.1213 9.87868C26.6839 10.4413 27 11.2044 27 12V39Z" fill="white"/>
<path opacity="0.5" d="M27 39C27 39.7956 26.6839 40.5587 26.1213 41.1213C25.5587 41.6839 24.7956 42 24 42H6C5.20435 42 4.44129 41.6839 3.87868 41.1213C3.31607 40.5587 3 39.7956 3 39V12C3 11.2044 3.31607 10.4413 3.87868 9.87868C4.44129 9.31607 5.20435 9 6 9H24C24.7956 9 25.5587 9.31607 26.1213 9.87868C26.6839 10.4413 27 11.2044 27 12V39Z" fill="#BDBDBD"/>
<path d="M27 39C25.5015 36.003 21.5145 36 21 36C18 36 13.5 39 9 39C7.5 39 6 37.656 6 36V12C6 10.344 7.5 9 9 9C13.8825 9 18 6 21 6C25.5 6 27 8.844 27 10.5V39Z" fill="white"/>
<path d="M51 39C51 39.7956 50.6839 40.5587 50.1213 41.1213C49.5587 41.6839 48.7956 42 48 42H30C29.2044 42 28.4413 41.6839 27.8787 41.1213C27.3161 40.5587 27 39.7956 27 39V12C27 11.2044 27.3161 10.4413 27.8787 9.87868C28.4413 9.31607 29.2044 9 30 9H48C48.7956 9 49.5587 9.31607 50.1213 9.87868C50.6839 10.4413 51 11.2044 51 12V39Z" fill="white"/>
<path opacity="0.5" d="M51 39C51 39.7956 50.6839 40.5587 50.1213 41.1213C49.5587 41.6839 48.7956 42 48 42H30C29.2044 42 28.4413 41.6839 27.8787 41.1213C27.3161 40.5587 27 39.7956 27 39V12C27 11.2044 27.3161 10.4413 27.8787 9.87868C28.4413 9.31607 29.2044 9 30 9H48C48.7956 9 49.5587 9.31607 50.1213 9.87868C50.6839 10.4413 51 11.2044 51 12V39Z" fill="#BDBDBD"/>
<path d="M27 39C28.4985 36.003 32.4855 36 33 36C36 36 40.5 39 45 39C46.5 39 48 37.656 48 36V12C48 10.344 46.5 9 45 9C40.116 9 36 6 33 6C28.5 6 27 8.844 27 10.5V39Z" fill="white"/>
</g>
<defs>
<clipPath id="clip0_2492_928">
<rect width="54" height="54" fill="white"/>
</clipPath>
</defs>
</svg>
