<svg width="103" height="113" viewBox="0 0 103 113" fill="none" xmlns="http://www.w3.org/2000/svg">
<path d="M95 0H8C3.58172 0 0 3.58172 0 8V105C0 109.418 3.58172 113 8 113H95C99.4183 113 103 109.418 103 105V8C103 3.58172 99.4183 0 95 0Z" fill="#635FFA"/>
<path d="M78.2744 42.8357C77.4544 42.4644 76.5441 42.3436 75.6565 42.4884C74.7688 42.6332 73.9431 43.0371 73.2819 43.65L67.4798 49.0786V45.1429C67.4798 42.9832 66.6268 40.9121 65.1085 39.385C63.5902 37.8579 61.531 37 59.3838 37H35.096C32.9488 37 30.8895 37.8579 29.3713 39.385C27.853 40.9121 27 42.9832 27 45.1429V66.8571C27 69.0168 27.853 71.0879 29.3713 72.615C30.8895 74.1421 32.9488 75 35.096 75H59.3838C61.531 75 63.5902 74.1421 65.1085 72.615C66.6268 71.0879 67.4798 69.0168 67.4798 66.8571V62.9214L73.3088 68.35C74.167 69.1313 75.2818 69.5663 76.4393 69.5714C77.0816 69.5699 77.7163 69.4311 78.3013 69.1643C79.0973 68.8404 79.7792 68.2853 80.2599 67.5697C80.7406 66.8542 80.9983 66.0107 81 65.1471V46.8529C80.9961 45.9861 80.7344 45.1404 80.2487 44.4245C79.763 43.7086 79.0754 43.1553 78.2744 42.8357ZM62.0825 66.8571C62.0825 67.577 61.7981 68.2674 61.292 68.7764C60.7859 69.2855 60.0995 69.5714 59.3838 69.5714H35.096C34.3802 69.5714 33.6938 69.2855 33.1877 68.7764C32.6816 68.2674 32.3973 67.577 32.3973 66.8571V45.1429C32.3973 44.423 32.6816 43.7326 33.1877 43.2236C33.6938 42.7145 34.3802 42.4286 35.096 42.4286H59.3838C60.0995 42.4286 60.7859 42.7145 61.292 43.2236C61.7981 43.7326 62.0825 44.423 62.0825 45.1429V66.8571ZM75.5757 63.0571L67.9925 56L75.5757 48.9429V63.0571Z" fill="white"/>
</svg>
