<svg width="20" height="18" viewBox="0 0 20 18" fill="none" xmlns="http://www.w3.org/2000/svg">
<path d="M17.447 2.84503C17.2463 2.16462 16.8299 1.56791 16.2604 1.14492C15.6909 0.721921 14.9994 0.495579 14.29 0.500034C13.4679 0.500768 12.6758 0.809 12.0694 1.36414C11.463 1.91928 11.0861 2.68117 11.013 3.50003H8.988C8.91386 2.68031 8.53579 1.91796 7.9281 1.36283C7.32042 0.807694 6.52707 0.499933 5.704 0.500034C4.99558 0.496557 4.30521 0.723376 3.73689 1.14632C3.16857 1.56927 2.75308 2.16544 2.553 2.84503L0.0420001 11.213C0.0144929 11.3062 0.000351839 11.4029 0 11.5V12.5C0.00158836 13.8258 0.52902 15.0968 1.46657 16.0342C2.40413 16.9715 3.67523 17.4987 5.001 17.5C5.97268 17.4984 6.92285 17.2138 7.73547 16.681C8.54809 16.1483 9.18798 15.3904 9.577 14.5H10.423C10.812 15.3904 11.4519 16.1483 12.2645 16.681C13.0771 17.2138 14.0273 17.4984 14.999 17.5C16.3249 17.4987 17.5962 16.9714 18.5338 16.0338C19.4714 15.0962 19.9987 13.825 20 12.499V11.5C20 11.402 19.985 11.306 19.958 11.213L17.447 2.84503ZM5.001 15.5C4.20558 15.499 3.44303 15.1826 2.88049 14.6202C2.31796 14.0579 2.00132 13.2955 2 12.5C2 12.424 2.017 12.353 2.022 12.278C2.07671 11.5248 2.41394 10.8201 2.96616 10.305C3.51838 9.78984 4.24482 9.50234 5 9.50003C5.79565 9.50003 6.55871 9.8161 7.12132 10.3787C7.68393 10.9413 8 11.7044 8 12.5V12.509C7.99657 13.3026 7.67925 14.0626 7.11734 14.623C6.55543 15.1834 5.7946 15.4987 5.001 15.5ZM14.999 15.5C14.2054 15.4987 13.4446 15.1834 12.8827 14.623C12.3208 14.0626 12.0034 13.3026 12 12.509V12.5C11.9999 12.1061 12.0775 11.7159 12.2282 11.3519C12.3789 10.9879 12.5998 10.6572 12.8783 10.3786C13.4408 9.81586 14.2039 9.49967 14.9995 9.49953C15.7951 9.4994 16.5583 9.81534 17.121 10.3779C17.6837 10.9404 17.9999 11.7034 18 12.499C17.9989 13.2946 17.6824 14.0573 17.1199 14.6199C16.5573 15.1825 15.7946 15.499 14.999 15.5Z" fill="#635FFA"/>
</svg>
